<svg version="1" xmlns="http://www.w3.org/2000/svg" width="1365.333" height="1365.333" viewBox="0 0 1024.000000 1024.000000"><path d="M450 79.1c0 .5.5.7 1 .4.6-.3 1-.8 1-1.1 0-.2-.4-.4-1-.4-.5 0-1 .5-1 1.1zM477 79c0 1.2 1.7 1.2 4.5 0 1.7-.7 1.5-.9-1.2-.9-1.8-.1-3.3.3-3.3.9zM486 79c0 .5.7 1 1.5 1s1.5-.5 1.5-1c0-.6-.7-1-1.5-1s-1.5.4-1.5 1zM492 79.2c0 .5 1.1.8 2.5.8s2.5-.3 2.5-.8c0-.4-1.1-.7-2.5-.7s-2.5.3-2.5.7zM503 79.1c0 .5.5.7 1 .4.6-.3 1-.8 1-1.1 0-.2-.4-.4-1-.4-.5 0-1 .5-1 1.1zM514.5 79c-.3.5.1 1 .9 1 .9 0 1.6-.5 1.6-1 0-.6-.4-1-.9-1-.6 0-1.3.4-1.6 1zM520.5 79c.3.5.8 1 1.1 1 .2 0 .4-.5.4-1 0-.6-.5-1-1.1-1-.5 0-.7.4-.4 1zM528.4 78.8c.7 1.2 6.6 1.4 6.6.2 0-.5-1.6-1-3.6-1-1.9 0-3.3.4-3 .8zM537.5 79.1c.8 1.2 6.2 1.2 6.9 0 .3-.5-1.2-.9-3.4-.9-2.3-.1-3.8.3-3.5.9zM552 79c0 .5.5 1 1 1 .6 0 1-.5 1-1 0-.6-.4-1-1-1-.5 0-1 .4-1 1zM558.5 79c.8 1.3 9.2 1.3 9.9.1.3-.5-1.9-.9-4.9-1-3.3 0-5.3.4-5 .9zM409.5 80.1c-.4.5.5.9 1.9.9s2.6-.4 2.6-.8c0-1.1-3.9-1.2-4.5-.1zM430 79.8c0 .4 1.6.6 3.5.4 1.9-.2 3.5-.6 3.5-.8 0-.2-1.6-.4-3.5-.4s-3.5.4-3.5.8zM578.1 79.4c2.2 1.9 4.6 2.3 6.4 1 1.7-1.3 1.5-1.4-2.5-1.4-2.4 0-4.1.2-3.9.4zM587.5 80c.3.5 1.3 1 2.1 1s1.4-.5 1.4-1c0-.6-.9-1-2.1-1-1.1 0-1.7.4-1.4 1zM594 80c0 1.2 6.4 1.9 7.8.8.8-.7 1.7-.7 2.6.1.9.8 1.6.8 2 .2.4-.5-.2-1.2-1.1-1.5-2.6-.8-11.3-.5-11.3.4zM611.5 79.9c-.7 1.2 1.2 2.4 2.5 1.6 1.1-.7.4-2.5-1-2.5-.5 0-1.1.4-1.5.9zM339.5 81.1c-19.4 1.3-33.1 2-47 2.5-14.9.5-45.5 4.7-46.6 6.5-.8 1.4-7.1 3-14.9 3.8-5.8.5-6.5.8-7 3.1-.4 1.7-2.2 3.3-5.9 5.1-8 4-7.8 3.5-8.4 17.5-.2 4-1 6.2-4.1 10.8-4 5.7-4 5.7-2.9 11 1 4.9.9 6-1.2 11.3-1.4 3.2-2.5 7.5-2.5 9.6 0 5.2 2.7 14.1 5.5 18.4 1.3 1.9 2.2 4 2 4.6-.3.7-.9 7.7-1.5 15.7-.5 8-1.4 18.5-2 23.5-1 8.8-4.9 47.8-7 70.5-1.4 14.8-1.5 58.5-.1 72 .6 5.8 1.3 13.6 1.6 17.5.3 3.8.7 8.1 1 9.5.2 1.4.9 7.9 1.5 14.5.7 6.6 1.4 13.8 1.6 16 .6 6 1.2 12.1 1.9 21 .4 4.4.9 9.8 1.1 12 .2 2.2.6 21.3.9 42.5.7 53.3 2.2 104.1 4 135.5.2 4.9.7 14.4 1 21 .3 6.6 1 19.9 1.6 29.5 1.6 29.6 1.8 64.3.3 79.5-5.1 53.8-6.2 63.2-9.6 76-2.3 8.6-4.1 12.9-8.6 19.7-1.6 2.4-3.2 5.5-3.5 6.9-.4 1.5-2.3 5.1-4.3 8l-3.5 5.4 4.8-4.8c4.6-4.4 13.3-17.4 13.3-19.7 0-1.8 3-8.3 3.6-7.8.9 1-1.5 12.3-3.6 16.6-1.1 2.3-2.9 4.6-4 5.2-2 1.1-2.8 5-1 5 1.8 0 1 2.5-2.4 7.5-1.9 2.8-4.2 6.3-5.2 7.9-1.6 2.9-1.6 3 .5 4.7 1.2 1 2.8 1.6 3.5 1.3 1.4-.5 3.4 2.8 3.8 6.5.3 2.4.9 2.9 5.8 4.9 5.2 2.1 10.5 3.6 21.5 6.1 2.8.7 8.4 2.5 12.5 4 13.6 5.2 32.6 6 125.5 5.5 74.4-.3 112.6-.9 123.5-1.8 8.5-.8 21.5-1.6 33-2.1 6.3-.3 21-1.3 32.5-2.3 17.8-1.4 31.8-1.7 92.4-1.4l71.4.3 2.7 3c3.6 3.7 4.8 3.7 9-.5 2.5-2.4 3.9-3.1 4.7-2.4.8.7 2.2.4 4.5-.9 1.8-1 3.4-1.9 3.6-1.9.2-.1.5-1.9.8-3.9.6-5 1.2-5.8 4-5.1 1.8.5 2.6.2 3.1-1.1.3-1 1.7-3.1 2.9-4.6 1.3-1.5 2.6-4.4 3-6.3.4-2 2-6.3 3.7-9.7l3-6.2-1.2-9c-.7-5-1.6-14.9-2.1-22-.9-13.6-2.4-20.4-8.9-40.2-10.3-31.6-16.6-57.9-19-79.3-.6-5.2-1.5-13.3-2-18-.6-4.7-1.3-14.8-1.6-22.5-2.9-71.4-5.2-96.1-14.5-152-3.2-19.5-5.1-33.1-6.9-49.5-1.2-10.2-2.5-22.1-3.1-26.5-.5-4.4-1.2-10.5-1.5-13.5-.4-3-.8-6.9-1-8.5-.9-6.4-1.5-21.1-2.1-48-.3-15.4-.8-29.8-1.1-32-.3-2.2-.5-5.6-.5-7.5.1-3.6-2.5-32.6-3.4-39-.8-5.2-5.1-31.3-6.8-40.5-.7-4.4-1.9-12.3-2.6-17.5-2.1-17.7-6.7-28.8-15.5-37.6-4.1-4.1-16.2-7.1-22.4-5.4-3.5.9-4.5.8-6.8-.9-3.1-2.1-8.8-3.8-7.9-2.2.4.5 1.9 1.2 3.6 1.6 1.6.3 3 1.4 3.2 2.3.5 2.1-8 12.2-10.1 12.2-1.6-.1-7.1-4.3-7.1-5.5 0-.3 2.1-1.9 4.7-3.5 2.8-1.8 4-3 2.9-3-1 0-4.2 2.4-7.1 5.4-2.9 3-7.1 6.4-9.3 7.5-7.7 3.9-9.6 7.7-40 79.1-11 25.9-18 44.7-24.6 66-8.1 26.2-21.5 66-24.4 72.5-4.2 9.2-4.7 9.9-6.4 10.3-1.5.3-1.7-.1-6.4-16.3-3.6-12.5-12-39.1-16.1-51-6.5-19-8.2-23.6-12.8-35.3-4-10-7.1-18-10.5-26.7-.4-1.1-1.7-4-2.8-6.5-1.1-2.5-3-7-4.2-10-1.2-3-2.9-6.9-3.6-8.7-.8-1.7-1.4-3.4-1.4-3.7 0-.4-1.5-3.9-3.4-7.9-3.9-8.4-8.1-20.5-9.1-26.2-.4-2.2-1.3-10.1-2-17.5-2-19.4-3.2-25.3-7.1-35.2-1.9-4.8-3.4-9-3.4-9.3 0-.3-1.5-2.5-3.4-5-1.9-2.4-3.8-5.5-4.2-6.7-.8-2.6-6.2-11.3-9.1-14.5-1-1.2-2.8-4-3.9-6.2-2.2-4.7-2.2-4.7-13.5-5.6l-8.7-.7-7.7 7.4c-7.1 6.7-9.6 10.4-13 19.3-.4 1.1-.9 11.4-1.1 23-.4 18.5-.6 21.1-2.2 22.2-4 2.9-9.2 8.6-9.2 10.2 0 .9-.5 2.2-1.1 2.8-1.9 1.9 0 6.4 4.3 10.3 3.2 3 4 4.5 4.3 7.6.1 2.1.5 4.6.9 5.4.3.8.2 3.8-.4 6.5-.6 2.8-1.1 5.7-1.1 6.5 0 .8-.3 2.2-.6 3-.4.8-.7 4.9-.8 9-.3 9.3-1.1 18.7-3 35.5-1.4 12.4-2.7 24.8-4 38-.3 3.3-.8 7.6-1 9.5-.2 1.9-.6 6.2-.9 9.5-.9 9.2-1.5 15.4-2.6 22.5-1.2 8.5-2.8 23.6-3.5 33-.3 4.1-1.4 14-2.5 22-1 8-2.9 23-4 33.5-1.2 10.4-2.7 23-3.5 28-1.3 8.5-3.1 22.2-4 31-.2 2.2-1.1 9.2-1.9 15.5-.8 6.3-2.4 18.4-3.5 26.9-1.2 8.4-1.9 15.6-1.7 16 .3.4-.2 3.9-.9 7.8-.8 4-1.4 8-1.4 9 .1 3.8-2.2 30.7-2.7 31.4-.2.4-.6 7.6-.9 16.1-.3 8.4-.9 17.5-1.4 20.3-.6 2.7-1 6.8-1 9 .1 2.2-.4 8.7-1 14.5-.6 5.8-1.6 15.4-2.1 21.5-3 32.1-10.4 73.3-16.9 93-2.3 7.2-4.1 10.9-8.7 17.6-1.9 2.8-3.7 6.3-4 7.8-.3 1.4-1.4 4.7-2.5 7.4-2.2 5.3-1.7 7.3 2.5 10 1.3.9 3.3 3 4.2 4.7 1 1.6 2.6 3 3.6 3 .9 0 2.9 1.1 4.4 2.5 1.5 1.4 3 2.5 3.5 2.5 1.7 0 1.5-2.6-.3-4.6l-1.9-2.2 5.5-5.7c5-5 8.1-9.3 13.8-18.5 2.9-4.8 7.6-17.5 13.3-36.5 2-6.6 4-13.4 4.5-15 .5-1.7 2.1-10 3.5-18.5 3-18.1 5.3-29.4 12-60 .7-3.6 1.9-9.3 2.6-12.8.6-3.4 1.6-6.5 2-6.8.5-.3.9-2 .9-3.7 0-3.7 4.7-31.4 5.5-32.7.3-.5 1-4.4 1.6-8.7.5-4.3 1.6-11.4 2.4-15.8 1.7-9.4 7.3-45.7 8-51.8.8-7.5 4.4-34.9 6.1-47.2 1-6.6 1.8-13.1 2-14.5 1.1-12.4 3.6-33.6 4.3-38 .6-3 1.5-9.1 2.1-13.5 2.7-20.9 5.1-40.6 7-57.5 1.8-16.7 2.8-24.9 6-52 1.1-8.8 6-41.5 6.6-43.8.2-.7.8-1 1.4-.7 2.3 1.4 13.3 27.4 14.6 34.5.4 1.9 1.3 4.5 2.1 5.7.8 1.1 2.9 6.8 4.8 12.5 1.8 5.6 5.2 15.5 7.5 21.8 4.1 11.4 8.5 24.7 10 30.5.4 1.6 2.3 7.7 4.3 13.5 1.9 5.8 4.7 14.3 6.2 19 4.7 14.7 15.2 42.9 21.5 57.9l6.1 14.5-2.7 8.5c-1.4 4.7-3.2 10.4-4 12.6-2 6.2-9 29-11.9 39-1.5 4.9-3.1 10.3-3.7 12-.5 1.6-1.3 4.3-1.8 6-.4 1.6-2.2 7.9-4 13.8-1.7 6-3.3 11.6-3.5 12.5-2 9.7-17 60.8-21 71.7-1.3 3.3-3.1 8.7-4 11.9-1 3.3-2.4 7.1-3.1 8.5-.8 1.4-1.4 3.1-1.4 3.8 0 .7-.7 2.7-1.4 4.5-2.7 6-12.4 33.1-16.4 45.8-2.2 6.9-5 15.4-6.2 19-2.8 8.6-5 21.6-4.3 25.2.5 2.4.2 3-1.6 3.5-3.4.9-1.6 6.4 4.8 14.3 1.9 2.5 4.4 5.1 5.4 5.8 1 .8 2.3 2 3 2.8 2.3 2.8 15.5 12.4 19 13.9 2.7 1.1 9.9 1.6 29.4 2 25 .6 26.4.5 47.8-2.5 34.4-4.9 37-5.1 71.5-5.6 35.3-.5 54.6.8 63.1 4.3 3.4 1.4 6.9 1.8 15.4 1.7 6.1 0 12.6-.4 14.6-.9 3.1-.6 3.8-.4 4.3 1.2.7 2.3 6.6 4.8 6.6 2.8 0-.7 1-1.9 2.2-2.7l2.2-1.5-2-3.4c-1.2-1.9-2.3-5.1-2.6-7.1-.6-3.1-.3-3.7 1.8-4.7 2-.9 2.3-1.5 1.5-2.9-.5-.9-.7-3-.4-4.5.3-1.7 0-3.4-.9-4.5-.9-.9-2.3-4-3.3-6.7-1-2.8-2.2-5.5-2.6-6.1-.5-.6-2.9-6-5.3-12-4-9.9-6.6-15.8-14.3-32.4-3.5-7.7-29.1-59.9-31.1-63.5-5.3-9.6-26.9-55.1-29.6-62.3-1.9-5.1-12.3-29.7-14.8-35-2.3-4.9-9.5-23.6-13.7-35.7-2.8-8-5.7-15.4-9.2-23.2-1.1-2.4-1.9-5-1.9-5.8 0-.9-.8-3.2-1.9-5.3-1-2-3.3-7.8-5.1-12.7-1.8-5-5.2-13.5-7.5-19-2.4-5.5-4.6-11.1-4.8-12.5-.3-1.4 1.3-7.6 3.5-14 2.1-6.3 4.7-14.2 5.7-17.5 1-3.3 3-9.4 4.4-13.5 2.7-8.2 7-22.3 11.2-37 11-38.5 24.7-79.1 30.4-89.8.5-.9 4.9-11.2 9.7-22.7 10.7-25.8 11.5-27.5 12.9-27.5 2.7 0 10 13.4 14.6 26.5 5.7 16.5 8.5 39.8 9.4 77.1.7 25.3 1.7 42.5 3.5 56.9.5 4.4 2.1 19.7 3.5 34 3.2 32.7 2.8 29.7 13.1 95.5.8 5.2 1.9 12.9 2.4 17 .6 4.1 1.2 8.8 1.5 10.5.9 5.9 1.4 13.3 2.5 33 .6 11 1.2 22.5 1.5 25.5.2 3 .7 10 1 15.5 2.1 35.9 10.3 85.4 19 116 1.5 4.9 3 10.3 3.5 12 1.2 4.1 3.3 9.7 4.3 11.2.5.7.6 1.7.3 2.2-.3.4 1.2 5.8 3.3 11.9 3.8 10.7 7.1 27.4 7.1 35-.1 2.6-.7 4.2-2.3 5.3-3.3 2.4-16.2 7.9-18.6 7.9-1.1 0-4.4.9-7.3 2-4.8 1.9-7.6 2-30.8 2-40.3-.1-47.7.1-45.5.9 2.4 1-4.7 1.8-24.5 2.6-7.4.3-21.1 1.3-30.5 2.1-9.3.8-19.9 1.6-23.5 1.9-3.6.3-12.3.9-19.5 1.5-32.6 2.4-67.3 3.2-127.5 2.6-62.8-.6-104.6-2.1-106.5-3.7-.6-.4-2.9-.9-5-1-6.8-.3-16.5-2.1-17.2-3.2-.4-.7.7-.8 3.4-.4 12.5 2 36.3 3.7 36.3 2.5 0-.4-1.7-.8-3.7-.8-3.5 0-12.8-1-29.8-3.1-4.4-.5-11.3-2.2-15.2-3.6-8.1-2.9-8.2-3.1-6.4-13.3 2.1-11 4-23.9 4.5-29 .3-3 1.2-9.8 2-15 .7-5.2 1.4-10.2 1.5-11 0-.8.8-7.4 1.6-14.5 3.9-33.5 5-75.2 2.6-94-.6-4.4-1-9.1-1-10.5.2-4.4-1.1-27.4-1.6-29-.3-.8-.7-10.7-1.1-22-1.1-37.7-1.2-40.9-1.8-41.8-.3-.5-.2-3.2.3-6.1.5-3 .4-5.4-.1-5.7-.5-.3-.6-2.4-.3-4.7.3-2.3.1-6.7-.4-9.7-.5-3.2-.5-6 0-6.6.5-.6.7-1.3.4-1.6-.3-.3-.8-23.1-1-50.8-.3-27.6-.8-50.8-1.2-51.4-.4-.6-.8-4.7-.9-9.1-.1-7.2-1.2-19.6-4.4-48.5-.6-5.2-1.5-13.8-2.1-19-1.3-11.7-2.7-48.1-1.9-49.5.3-.6.4-2.4.2-4-.5-5.1.1-18 1.2-23.5.3-1.9.8-7.1 1-11.5.3-4.4 1.1-14.3 2-22 .8-7.7 1.5-17 1.6-20.7 0-3.8.5-7 1.1-7.4.7-.4.9-2.4.6-5.2-.3-2.5-.1-5.3.3-6.1 1.3-2.6 3.1-19 3.6-32.8.3-6.9.9-13.4 1.5-14.4.5-1 .9-4.2.9-7.3 0-3 .4-6.5.9-7.8 1.3-3.4 10-6.9 20.5-8.4 3.4-.5 5-1.2 5.3-2.4.5-2 2.7-2.6 20.3-5.9 6.3-1.2 12.9-2.6 14.5-3.1 1.7-.5 6.8-1.2 11.5-1.6 4.7-.4 9-1.1 9.7-1.6.6-.5 1.7-.8 2.5-.7.7.2 3.6-.2 6.3-.8 5.8-1.4 6-1.4 14.5-1.7 7.6-.3 16.5-1.3 23.5-2.6 2.8-.5 7.9-1.2 11.5-1.5 3.6-.2 8.3-.7 10.5-1.1 2.2-.3 6-.7 8.5-.9 2.5-.1 8.8-.8 14-1.5 5.2-.7 12.3-1 15.7-.7 4.1.3 6.3.1 6.6-.7.4-1.1 10.4-1.5 51.4-2 11.2-.1 20.5-.5 20.8-.8.3-.3 3.4-.3 6.8-.1 6 .4 11.7.5 32.2.1 5.5-.1 16.5.1 24.5.4 8 .4 16.8.7 19.7.7 2.9 0 6.1.5 7.2 1.1 1.4.7 2.7.7 4.1 0 1.1-.5 2.8-1.4 3.9-1.9 1.3-.7 2.3-.5 3.3.6 1.4 1.3 2.9 1.6 7.8 1.3 3.7-.3 17.6 1.2 19.1 2 1 .6 3 .5 5 0 1.8-.5 3.5-.8 3.7-.5.3.3 1.1 0 1.8-.6.9-.7 1.9-.6 3.6.4 2.4 1.6 7 2.3 20.3 3.2 7.5.6 26.5 3.7 41.5 7 3.6.7 8.3 1.6 10.4 2 2.1.4 4.9 1.3 6.1 2.1 1.6 1.1 2.4 1.2 2.7.3.4-1.2 12.4 1.2 16 3.1 1 .6 2.7 1 3.8 1 1.1 0 2.7 1.1 3.6 2.5 1.7 2.6 8.3 27.3 8.4 31.2 0 1.2.6 2.8 1.3 3.5.9.8 1.4 4.2 1.4 9.7.1 4.6.5 8.6 1 9 .4.3.9 3 1 6 .1 3.6.7 5.7 1.6 6.3.9.4 1.5 2.4 1.5 4.8 0 2.2.4 4.5.7 5 .4.6.1 1.8-.6 2.6-1 1.3-1 1.7 0 2.4.8.4 1.1 1.6.7 2.7-.4 1.2-.1 2.5.7 3.2.9.6 1.5 3.4 1.6 6.8.1 3.2.8 7.6 1.5 9.8 1.2 3.4 1.2 4.2.1 5.5-1 1.1-1.1 2-.4 3.3.6 1 .7 3.1.4 4.7-.5 2.3-.3 3 .8 3 1.5 0 2.7 2.8 2.7 6.4 0 1.2-.5 1.6-1.6 1.2-1.1-.4-1.4-.1-1.2 1.2.2 1 1.1 1.6 2.2 1.4 1.7-.3 1.8.1 1.2 5.2-.4 4-.2 6.7.9 9.2.8 2 1.7 7.9 2 13.1.3 5.3 1 10.4 1.6 11.5.6 1.1.9 3.4.8 5.1-.2 1.8-.1 3.7.2 4.2.3.6.6 3.2.7 5.9.1 2.7.7 5.5 1.4 6.3.6.8 1.3 4 1.4 7.1.3 6.6.6 8.1 1.9 10.2.5.8.8 2.7.7 4.2-.1 1.4.2 2.9.8 3.3 1.3.8 1.3 5.2 0 6-1.2.8 0 6.6 1.8 8.4 1.2 1.3 1.2 1.6-.4 2.8-1.6 1.2-1.7 1.5-.4 2.3 1.2.7 1.2 1.4.4 2.7-.8 1.3-.6 2.5.8 4.9 1 1.8 1.9 5.4 2.1 8.7.1 3.2.5 5.7 1 5.7.4 0 .7 1.5.7 3.4s.5 3.8 1 4.1c1.4.9 1.3 9.2-.2 9.7-.9.3-.9 1.2 0 3.8.7 1.8 1.2 4.6 1.2 6.1 0 1.6.5 2.9 1.2 2.9.9 0 .9.3 0 1.2-.9.9-.8 1.4.4 2.3 1.3.9 1.4 2.1.7 7.3-.9 5.4-.8 6.4.8 7.8 1.7 1.5 1.7 1.8.2 4.1-1.2 1.8-1.3 2.7-.4 3.6.6.6 1.1 2.6 1.1 4.4 0 1.8.5 3.3 1 3.3 1.8 0 1 3.1-1.2 5.1-1.3 1-1.7 1.8-1 1.9.6 0 1.2-.5 1.2-1 0-.6.5-1 1-1 .7 0 .9 1.4.5 3.7-.5 2.8-.4 3.4.4 2.3.5-.8 1.3-1.1 1.7-.7.4.4 1.8 0 3.1-.8 2.6-1.7 3-.9.9 1.8-.9 1.1-2 1.5-3.1 1-1.5-.5-1.7-.2-1.3 1.5.4 1.2.2 2.5-.3 2.8-1.1.6-1.2 2.4-.1 2.3 3.5-.6 3.4 3.2-.2 6.4l-2.1 1.8 2.3-1.1c1.9-.9 2.2-.8 2.2.8 0 1.1.9 2.2 1.9 2.5 1.6.4 2 1.3 1.9 4.6 0 2.3-.4 4.4-.9 4.7-.5.3-.9-.4-.9-1.5 0-2.5-3.5-2.9-4.4-.6-.6 1.6 2.8 3.5 6 3.5.8 0 1.4.6 1.4 1.2 0 .8.5.6 1-.3.6-1 .8-4.1.5-7-.2-2.9 0-6 .5-7 .7-1.1.5-2-.4-2.8-.7-.6-1.2-2.1-1-3.3.1-1.3.3-4.2.3-6.6.1-2.3.5-4.2.9-4.2.8 0 2.1 11.1 2.8 24.5.2 2.7.4 5.2.5 5.5.2.5.7 9.4 1 18.5.1 2.2.1 5.6 0 7.5-.1 1.9.1 5.6.3 8.2.4 3.7.2 4.8-1 4.8-.7 0-1.4-.7-1.4-1.6 0-.8-.4-1.3-1-.9-.5.3-.7 1.2-.4 2 .4.8-.1 1.8-1 2.1-.9.3-1.6 1.2-1.6 2s-.5 1.4-1 1.4c-.6 0-.5.8.2 1.9.9 1.5 1.9 1.8 4 1.4 2.8-.5 4 1.1 1.6 2-1 .3-1 .9 0 2.6 1.1 1.8 1.1 2.6.1 3.8-1.2 1.3-1.4 1.3-2.6-.3-1.9-2.6-1.6-1 .6 2.8 1.2 2.2 1.6 4.5 1.3 6.7-.3 2.2-.1 3.2.6 2.7.5-.3 1 .4 1 1.7 0 3.9 1.2 33.8 1.7 45.7.9 17.8 1.1 76 .3 90-1.2 19.7-1 58.5.3 58.5.1 0 .3.9.4 2.1.1 1.1.5 3.7.9 5.8.6 2.9.4 3.7-.6 3.4-1.3-.5-2.4-5.8-3.3-16.3-1-13.1-1.7-17.5-2.7-17.5-.6 0-.6-.6.1-1.4 1.4-1.6 1-11.4-.5-13.7-.6-1-1.1.1-1.4 3.6-.3 2.7-.2 5.5.3 6.2.4.6.4 1.4-.2 1.7-1.3.8.7 32.5 2.5 40.9 1.5 6.7 1.5 32.2 0 45.7-.8 8-1.7 18.5-1.8 23.3-.1 4.9-.6 9.1-1 9.3-.8.5-3.6-1.1-13-7.1-1.7-1.1-3.4-2.7-3.9-3.5-.4-.8-1.7-3.6-3-6.2s-2.7-4.4-3.2-3.9c-.4.4-.1 2.1.8 3.7 2.6 5 1.7 8-2.9 9.7-1.8.7-1.8.8-.1 2.1 1 .7 1.6 1.8 1.4 2.5-.5 1.3-7-3-12.6-8.3-1.8-1.6-3.3-2.5-3.3-1.8 0 .6 3.5 3.9 7.8 7.3 4.2 3.4 8.1 7 8.6 8s2.5 2.4 4.5 3c2 .7 6.1 2.9 9.1 5 3.1 2.1 6.8 4.2 8.2 4.8 1.6.6 2.8 1.9 3 3.3.4 1.8.6 1.6 1.2-1.5.6-2.6 1.3-3.7 2.6-3.7 1 0 2.2-.9 2.5-2 .3-1.1 1.1-2 1.6-2 1.3 0 1.1 2.4-.3 3.8-2.1 2.1 1.7 1.4 4.3-.7 2.4-1.9 2.4-2.1 2.6-25.2.1-12.8.5-23.9.7-24.6.3-.7.1-1.3-.4-1.3-.6 0-1 1.6-1 3.5s-.4 3.5-1 3.5c-1.1 0-.2-16.2 1.1-19.8.5-1.3.7-2.7.5-3-.2-.4-.7-5.2-1-10.7-.4-5.5-.9-10.7-1.1-11.5-.3-.8-1.4-8-2.6-16-2.8-18.6-3.4-55.6-.9-57.1 1-.5 1.1-.8.2-.9-1.7 0-.7-35 1.1-36.2.9-.6.9-1-.1-1.6-1.8-1.2-1.4-11.2.5-11.2.7 0 1.3-.5 1.3-1 0-.6-.7-1-1.5-1s-1.5-.9-1.5-2 .5-2 1.1-2c.6 0 1.8-.7 2.6-1.6 1.3-1.2 1.3-1.8.4-2.4-.9-.5-1.5-3.9-1.8-9.5-.3-6.1-.1-8.5.6-8 .6.3 1.1.1 1.1-.4 0-.6-.5-1.1-1.1-1.1-.7 0-.8-7.9-.4-26.3 1.1-39.9 1.2-76.4.3-105.7-.5-14.6-1-33-1.2-40.8-.2-10.9-.6-14.6-1.7-15.3-1.1-.6-1.1-1.1-.1-2.1.6-.6 1.2-3.2 1.2-5.7 0-2.4.3-4.2.6-3.9.7.8 1.2 4.5 1.8 12.8 1.3 18.7 2.6 25.6 2.6 13.9 0-5.7-2.5-50.3-3.5-61.9-.2-2.5-.6-9.1-.9-14.7-.3-5.6-1-13.9-1.5-18.5-.6-4.6-1.2-12.1-1.5-16.8-.2-4.7-.9-12.6-1.5-17.5-1.2-10.6-3.9-38-4.6-48-.3-3.9-.8-8.4-1-10-.3-1.7-.7-10.4-.9-19.5-.3-9.1-1-19.4-1.6-23-1.3-7.7-2.6-41-2.3-63 .1-15.7 1.3-26.2 2.9-26.7.5-.2.7-3.5.6-7.4-.3-6.2-.2-7.1 1.2-6.6 1.8.7 2.3-2.2.6-3.9-.5-.5-1.4-6.5-2-13.3-1.2-13.5-3.3-19-8-21.2-1.4-.6-3.4-1.6-4.5-2.2-4.1-2.1-5.2-2.5-11.5-4.5-13.9-4.3-30.6-8.2-34.9-8.2-1.4 0-3.8-.4-5.5-1-4-1.2-23.7-5-26.1-5-1.1 0-1.5.3-1 .9 1.1.9 12.6 3.4 27 5.7 12.2 2 15.5 3.1 14.8 5.1-.5 1.3-.3 1.4 1.6.4 2.5-1.4 6.5-.5 5.5 1.1-.5.7.2.9 2 .4 1.4-.3 2.6-.3 2.6.2s1.2 1.5 2.8 2.2c2.7 1.2 2.7 1.2.5 2.1-1.2.4-3.5.4-5.1 0-1.7-.5-3.6-.5-4.6.1-2.2 1.2-3.3.3-1.7-1.6 1-1.1.5-1.4-3-1.4-3.6-.1-3.9.1-2.3 1.2 1.5 1.1.4 1.3-7 1-4.7-.2-9.2-.6-9.8-1-.6-.4-3.7-.8-6.9-1-3.3-.1-7.3-1-9-1.8-1.8-.9-4.7-1.6-6.5-1.6-1.8 0-3.6-.5-3.9-1.1-.4-.6-1.9-.7-3.6-.4-1.9.4-2.9.3-2.9-.5s-1-.9-2.8-.5c-2 .4-3.3.1-4.2-1-1.1-1.3-2.5-1.5-7.1-1-3.2.4-5.9.3-6.2-.3-.5-.7-4.3-1.2-11.7-1.4-.8-.1-1.9-.4-2.5-.8-.5-.4-7.6-1.3-15.7-2-8.2-.7-14.8-1.7-14.8-2.1 0-.4 1.2-1.2 2.8-1.7 2.6-1 2.5-1-1.4-1.1-3.4-.1-4.2.2-4 1.6 0 1-.5 1.8-1.1 1.7-.7-.1-2.2-.2-3.3-.3-1.1 0-2-.8-2-1.6 0-1.7-1.7-2-2.2-.4-.6 1.9-20.9 1-21.6-1.1-.3-.8-.8-.8-1.8 0-.9.8-4.3 1-10.1.6-4.8-.3-9.4-.5-10-.6-.7 0-1.3-.7-1.3-1.5 0-2-1.7-1.9-2.8.1-.6 1.2-2.6 1.5-8.8 1.4-12.4-.1-127.2-.9-133.6-.9-3.2 0-6.8.2-8 .5-2.4.6-25.1 1.7-27.8 1.4-6.4-.7-15.2-.3-18.5.8-2.9 1-4.5 1.1-5.7.3-1-.6-3.7-.9-6-.6-2.4.3-9.2.7-15.3.9-12.1.5-37.5 2.1-55.7 3.6-6.4.6-13.1 1-15 1-5.2-.1-1.4-1.6 7.2-2.9 4.1-.7 7.6-1.4 7.9-1.6 1.2-1.3-1.4-1.5-8.8-.7-4.5.4-8.7.5-9.3.1-1.8-1.1-.8-1.7 3.8-2.3 7.3-.8 11.9-1.8 13.2-2.9.8-.6 1.2-.6 1.2.1 0 1.6 12.1.5 18.7-1.7 3.2-1.1 6-1.6 6.3-1.1.7 1.2 28 .4 29.2-.8.6-.6 1.6-.8 2.3-.6.7.3 1.6.1 1.9-.5.7-1.1-12.8-1.1-29.9 0zM290 90.9c0 1.2-2.6 2.1-5.8 2.1-2.4-.1-2.5-.2-1.1-1.3 2-1.5 6.9-2 6.9-.8zm2 5.1c0 .5-.7 1-1.5 1s-1.5-.5-1.5-1c0-.6.7-1 1.5-1s1.5.4 1.5 1zm497.5 12c.3.5-.1 1-.9 1-.9 0-1.6-.5-1.6-1 0-.6.4-1 .9-1 .6 0 1.3.4 1.6 1zm6 3c-.4.6-1.4.5-2.5-.2-2.4-1.6-1.5-3.1 1.1-1.8 1.1.6 1.7 1.5 1.4 2zm8.2 5.3c2.7 3.9 4 8.7 2.4 8.7-.6 0-1.6-1.2-2.1-2.6-.6-1.5-1.9-3.9-3-5.4-1.1-1.6-2-3.3-2-3.9 0-1.8 2.4-.2 4.7 3.2zM809 128c0 .5-.4 1-1 1-.5 0-1-.5-1-1 0-.6.5-1 1-1 .6 0 1 .4 1 1zm-596 63.6c0 .8-.4 1.2-1 .9-.5-.3-1-1.3-1-2.1s.5-1.2 1-.9c.6.3 1 1.3 1 2.1zm.4 10c-.5 3.5-.3 5.9.5 6.8 1 1.1.9 1.6-.2 2.3-1 .5-1.8 4.7-2.6 13.8-2.1 22.3-2.1 22.5-.5 22.5 1.7 0 1.8 3.3.3 6.1-.7 1.5-.7 2.4.1 3.4 1.6 1.9.2 8.8-1.6 8.1-.8-.3-1.4-.1-1.4.3 0 .5.7 1.1 1.5 1.5 1.8.6 2 6.7.4 9.7-.7 1.5-.7 2.4.1 3.4 1.2 1.4.5 5.5-.9 5.5-.5 0-.6 1.2-.3 2.6.3 1.8 0 3-1.2 3.6-2.2 1.3-2 3.8.4 3.8 2 0 2.8 2.4 1.2 3.4-.9.5-1.2 3.8-1.5 14.6-.1 3.6-.6 6.8-1.1 7.2-.6.4-.5 1.2.2 2.1.9 1.1 1 2.2.2 4.1-.5 1.5-.7 3.8-.4 5.1.3 1.2.1 2.6-.6 3-1.7 1-2.5-.2-1.1-1.9.8-.9.8-1.6.2-2-1.1-.7-2.4 1.1-2.6 3.8-.1 1.1.6 2.1 1.7 2.4 1.3.3 1.7 1 1.2 2.1-.9 2.4-1.1 6.4-.2 8.2.4.9.8 6.3.9 12 .1 5.7.6 14.2 1.1 18.9.5 4.7 1.1 11.6 1.3 15.5.2 3.8.9 11.5 1.5 17 2.5 23 4.7 52.3 4.1 56.1-.5 3.8-.8 4.1-2.8 3.3-2.6-.9-3.1-3.7-.8-4.5 1.3-.5 1.3-.8 0-2.1-1.8-1.7-2-9.4-.3-11.1.9-.9.9-1.2 0-1.2-.7 0-1.2-.7-1.2-1.5s.4-1.5.9-1.5c1.1 0 .3-8.8-1.1-11.7-.6-1.2-.8-2.8-.5-3.7.3-.8-.3-2.4-1.3-3.6-1.3-1.5-2-4.5-2.5-11.3-.4-5.1-.9-10.6-1.1-12.2-.3-1.7-.7-5.9-.9-9.3-.3-3.5-.7-6.7-1-7.2-.3-.5-.8-5.3-1.2-10.7-.7-9.8-.7-11.3-.4-16.8.4-7.4-.5-27.1-1.2-28.3-.5-.7-.4-1.9.3-2.7.6-.8 1.3-7.1 1.5-15.6.3-7.8 1-15.8 1.6-17.7.7-2 .9-6.6.7-10.8-.3-4-.1-7.7.3-8.1.5-.5 1-5.1 1.3-10.3.2-5.2.9-12.2 1.5-15.5 1.5-8.2 2-13.8 3.6-44 .7-13 1.1-15.1 3-13.5 1.1.9 1.3 2.5.9 6.6zm442 19.9c3 3.9 2.9 5.1-.2 4.1-2-.7-7.4-8.1-6.5-9 1-.9 3.9 1.2 6.7 4.9zm-13.9-3.5c-.3.5-1 1-1.6 1-.5 0-.9-.5-.9-1 0-.6.7-1 1.6-1 .8 0 1.2.4.9 1zm4.3 1.2c2 2 1.4 3.8-1.3 3.8-2.9 0-4.5-2.8-2.4-4.1 1.8-1.2 2.3-1.1 3.7.3zm-431.2 5.5c-1 1-1.9-.5-1-1.8.6-1.1.8-1.1 1.2 0 .2.7.1 1.5-.2 1.8zm436.2 2.2c.3.8-.1 1.2-.9.9-.7-.2-1.5-1-1.7-1.7-.3-.8.1-1.2.9-.9.7.2 1.5 1 1.7 1.7zm7.6 1.7c.9.3 1.6 1.3 1.6 2.1 0 2-3.4 1.2-3.8-1-.4-1.9-.1-2 2.2-1.1zm4.1 9.1c.3 1 2.8 3.4 5.4 5.5 5.6 4.2 5.3 3.2 8.6 28.8 1.2 9.6 2.7 19 3.3 20.7.6 1.8.7 3.5.2 3.8-.9.5-4-7.7-4-10.6 0-1-.9-3.3-2-5.1-3.3-5.7-17.2-45.3-16.2-46.3.8-.8 4 1.4 4.7 3.2zm-44.5-.9c0 2-3.3 5-6.9 6.2-3.2 1-4.8 2.4-7.1 6.2-1.7 2.6-3 5.4-3 6.1 0 .6-2.1 3.9-4.5 7.2-2.6 3.4-5.2 8.4-6.1 11.5-2.4 8.2-4.4 13.9-7 19.5-8.9 19.6-27.9 65.6-31.9 77.5-1.2 3.6-4.8 13.3-7.9 21.6-3.1 8.4-5.6 15.7-5.6 16.3 0 .6-.4 1.1-1 1.1-1.3 0-1.7 1.6 3.5-15 6.1-19.3 7.3-23.3 9.5-31 4.2-15 11.7-35.6 19.2-53 4.4-10.2 10.4-24.1 13.3-31 8.7-20.9 15.6-33.9 20.6-39.2 4.4-4.5 5-4.8 9.8-4.8 2.8 0 5.1.3 5.1.8zm52.7 5.8c-.9.9-2.8-.6-2.1-1.8.4-.6 1-.6 1.7.1.6.6.8 1.3.4 1.7zm-135 171.6c-.3.7-.5.2-.5-1.2s.2-1.9.5-1.3c.2.7.2 1.9 0 2.5zm273.1 51.5c-.4 2.2-2.2 2-2.6-.1-.2-1 .3-1.6 1.3-1.6s1.5.7 1.3 1.7zm2.3 3.6c-1.3 1.3-2.6.3-1.6-1.2.3-.6 1.1-.8 1.7-.5.6.4.6 1-.1 1.7zM215 482c.6 10.1.3 11.4-2.3 10.5-1.9-.8-2.6-2.6-3.3-8.1-.4-3.6-.2-4.5 1.6-5.4 2.3-1.2 2.8-3.2.5-2.4-1.6.7-1.9-.4-.9-3.1.4-.9 1.4-1.5 2.3-1.3 1.3.3 1.7 2.1 2.1 9.8zm600.5 10.1c.5 2.8.3 4.5-.5 5.2-1 .9-1.2.8-.7-.5.3-1 .2-2-.3-2.3-1.3-.8-1.3-6.5-.1-6.5.5 0 1.2 1.8 1.6 4.1zM215.2 514c.5 19.7.1 26.3-1.3 25.4-1.5-.9-1 1.3.5 2.5 1.1.9 1.5 4.2 1.6 13.4 0 6.7.3 14.9.5 18.2.2 3.3.6 14.8.9 25.5 1.3 41.6 1.7 53.2 2.6 74.5.5 12.1 1 22.6 1 23.3 0 .7-.4 1.1-.8.8-.5-.3-.9-2.7-1-5.3-.8-25.7-1.9-36.3-3.8-36.3-.8 0-1.4-.7-1.4-1.6 0-1 .6-1.4 1.5-1 1.7.6 1.8.4.9-1.8-.3-.9-1-1.4-1.4-1.1-1.5.9-1.8-3.5-.4-4.9 1.8-1.8 1.8-3 .1-4.5-1.6-1.3-2-6.8-.6-7.6 1.5-1 1-4.7-.8-6-1.3-1-1.5-1.6-.6-2.6 1.1-1.4 1-5.7-.2-9.7-.5-1.4-.3-2.2.4-2.2.6 0 1.1-.7 1.1-1.6 0-.8-.4-1.2-1-.9-1.4.9-1.3-1.8.2-3.3.9-.9.9-1.8 0-3.6-.7-1.6-.8-2.7-.1-3.1.5-.4.7-1 .5-1.4-1.3-2.1-2.8-67.1-1.6-69.1.5-.8.3-2.5-.6-4.3-1.1-2.1-1.3-4.3-.8-8.4.4-3.1.8-9.7.9-14.7.3-10.9.2-10.4 1.9-8.6 1.1 1.2 1.5 5.9 1.8 20zm608.1 56.7c-.4 1-.9 1.1-1.9.2-1.1-.9-1.2-1.5-.3-2.6 1.4-1.7 3.1.1 2.2 2.4zm-.3 11.8c0 .8-.4 1.5-1 1.5-.5 0-.7-.7-.4-1.5.4-.8.8-1.5 1-1.5.2 0 .4.7.4 1.5zm.4 4.6c-.3.5-1 .7-1.5.3-.5-.3-.7-1-.3-1.5.3-.5 1-.7 1.5-.3.5.3.7 1 .3 1.5zm.6 3.4c0 .8-.7 1.5-1.5 1.5-1.6 0-2-1.2-.8-2.3 1.1-1.2 2.3-.8 2.3.8zm0 7c0 1.4-.4 2.5-1 2.5-1.1 0-1.4-3.3-.3-4.3 1.1-1.1 1.3-.8 1.3 1.8zm-312.2 6.1c1.1 2.7 3.7 8.5 5.6 12.7 2 4.2 3.6 8.1 3.6 8.6s1.6 4.1 3.5 8c1.9 3.9 3.5 7.2 3.5 7.5 0 .2 2.2 5 4.9 10.7 2.7 5.7 6.7 14.2 8.9 18.9 2.1 4.7 5.4 11.6 7.2 15.5 3.3 6.8 11.6 22.4 19.2 36 2.1 3.8 4.8 8.8 5.8 11 1.1 2.2 3.8 7.1 6 11 2.2 3.8 5.8 10.6 7.9 15 2 4.4 5.6 11 7.9 14.7 2.2 3.7 4.4 7.8 4.8 9 .3 1.2 4 9.1 8 17.6 4.1 8.5 7.4 15.9 7.4 16.5 0 .6.8 2 1.8 3.1 3 3.3 7.5 14.8 6.2 15.6-.6.4-4.4.5-8.3.3-4-.2-7.9-.3-8.7-.3-4.7.4-10.1 0-19.6-1.5-8.1-1.4-10.8-1.5-11.3-.6-.5.8-1.8 1-3.7.5-2.5-.6-2.6-.8-.9-1.5 1.9-.7 1.9-.8-.2-.8-1.2-.1-2.3.3-2.5.8-.1.5-1.6.7-3.3.4-2.5-.5-2.7-.7-1-1.3 2.5-.9-8.5-2.9-19.5-3.5-18.7-1.2-65.1.4-92.9 3.1l-6.4.7.6-4.3c.3-2.4.9-4.6 1.4-4.9.4-.3.9-3.3 1-6.6.1-7.7 1.8-15.9 5.3-26.5 4.4-13 12.4-39.8 16.9-56.5 2.3-8.3 4.5-16.6 5.1-18.5.5-1.9 3.2-12.5 5.9-23.5s6.8-26.8 9.1-35c5.2-18.5 5.5-19.6 7.4-27 .8-3.3 2.6-9.2 4-13 1.3-3.9 3.2-9.6 4.1-12.8.9-3.3 2-5.5 2.4-5 .4.4 1.7 3.1 2.9 5.9zM825 622.1c0 .5-.4.9-1 .9-.5 0-1-.7-1-1.6 0-.8.5-1.2 1-.9.6.3 1 1 1 1.6zm-365.9 16.6c-.8 1.5-1 1.5-1.1.2 0-1.7 1-3.2 1.8-2.5.2.3-.1 1.3-.7 2.3zM825 637c0 .5-.4 1-1 1-.5 0-1-.5-1-1 0-.6.5-1 1-1 .6 0 1 .4 1 1zm-368.4 11.5c-1.8 4.8-2.1 2.6-.4-3 .6-2.2 1.3-3.3 1.5-2.5.2.9-.3 3.3-1.1 5.5zm-1.9 7.7c-.3.7-.5.2-.5-1.2s.2-1.9.5-1.3c.2.7.2 1.9 0 2.5zM216 663c0 3.3-.4 6-.8 6s-.8-2.7-.9-6c-.1-3.3.2-6 .7-6 .6 0 1 2.7 1 6zm236.7.2c-.3.7-.5.2-.5-1.2s.2-1.9.5-1.3c.2.7.2 1.9 0 2.5zm-235.9 13.3c.2 3.6-.1 5.4-.8 5-.5-.3-1-3.1-1-6.1 0-7.2 1.5-6.3 1.8 1.1zm231 5.7c-.6 2.4-2.4 9-4 14.8-1.6 5.8-3.6 12.7-4.3 15.5-2 7.1-6.5 20.8-11.9 36-2.6 7.1-5.7 16.1-7 20-3.3 9.6-5.8 15.2-6.3 13.9-.4-1.2 5-17.9 14.2-43.9 3.1-8.8 6.3-18 7-20.5.7-2.5 3.1-10.4 5.3-17.5 2.1-7.2 4.5-15.1 5.2-17.8 1.6-5.8 3.2-6.3 1.8-.5zM218 687.1c0 .5-.4.9-1 .9-.5 0-1-.7-1-1.6 0-.8.5-1.2 1-.9.6.3 1 1 1 1.6zm-.1 6.6c0 2.5-.1 2.6-.9.8-1.2-2.7-1.2-3.5 0-3.5.6 0 1 1.2.9 2.7zm4.4 27c.2 11.2.1 20.3-.2 20.3-2.4 0-4.4-15.1-2.1-16.5.5-.3.6-1.6.2-2.8-1-3-.3-23.2.8-22.1.4.5 1 10 1.3 21.1zm-.1 31.2c0 4.9-.5 9.8-1.1 10.9-1.4 2.6-1.4 6.9-.1 7.7 1.6 1 1.2 2.5-.7 2.5-1.7.1-1.7.1 0 1.4 1.4 1.1 1.6 2.2 1.1 5.7-.4 2.4-1.1 4.7-1.7 5-.5.4-1.1 2.6-1.3 5-.7 8.4-1.5 12.9-2.5 12.9s-1.3-5.3-.3-6.3c.3-.3.8-6.3 1-13.4.1-7 .7-16 1.1-19.8.4-3.9.6-8.1.5-9.3-.2-1.3.2-3 .9-3.8.6-.7.9-2.1.5-3-.6-1.6 1.2-6 2.1-5 .3.3.5 4.6.5 9.5zM823.5 806c.3.5.1 1-.4 1-.6 0-1.1-.5-1.1-1 0-.6.2-1 .4-1 .3 0 .8.4 1.1 1zm-607.2 4c-.3 1.1-1 2-1.5 2-.6 0-.7-.7-.4-1.6.3-.9.6-2 .6-2.5 0-.6.4-.8.9-.5.5.3.7 1.5.4 2.6zm608.7 3.1c0 .5-.7.9-1.5.9-.9 0-1.5-.9-1.5-2.1 0-1.8.2-1.9 1.5-.9.8.7 1.5 1.6 1.5 2.1zm-609 3c0 1.7-.4 2.8-1 2.4-.5-.3-1-1.7-1-3.1 0-1.3.5-2.4 1-2.4.6 0 1 1.4 1 3.1zm-.6 4.8c.7 1.1-2 4.8-2.9 3.9-.9-.8.4-4.8 1.5-4.8.5 0 1.1.4 1.4.9zm337 8.6c10.4.9 11.6 2.7 1.4 2-12.3-.7-19.8-1.7-19.8-2.5s4.3-.7 18.4.5zm-21.8 2.3c-.3.5-11.5 1.3-24.8 1.7-13.4.4-25.9.9-27.8 1-9.7.9-29.4 1.7-29 1.2.7-.7 4.8-1.1 26.5-2.7 8.8-.7 16.1-1.3 16.3-1.5.9-.8 39.3-.5 38.8.3zM198 888.1c-1 1.7-3 2.7-3 1.3 0-1.5 2.2-4.4 3.1-3.9.5.4.5 1.3-.1 2.6zm536 13.5c0 .8-.4 1.4-.9 1.4-1.2 0-3.2-2.6-2.5-3.3 1-.9 3.4.4 3.4 1.9zm-25 6.3c4.1.1 6.1.4 5.4 1.1-.5.5-26.5 1.1-66.4 1.3-36 .2-69.1.7-73.5 1-15.7 1.1-48.2 3.7-60 4.7-6.6.6-15.8 1.3-20.5 1.6-4.7.3-13.2.9-19 1.4-17.4 1.4-42 1.6-118.2.9-15.3-.1-28 0-28.3.2-.4.4-9.2.3-10.5-.2-.3-.1-.9 0-1.5.1-2.4.5-16.2-.2-28.5-1.5-1.9-.2-6.6-.6-10.5-.9-9.2-.9-18.5-2.8-18.5-3.9 0-.4.8-.6 1.8-.3 5 1.6 40.8 2.4 57.2 1.2 5.3-.3 8.6-.2 7.6.2-4 1.7.3 2.2 4.6.6 4.3-1.7 11-2.2 32.3-2.3 12.1 0 14.5.1 16.2 1.2.6.4 1.4.3 1.7-.2.4-.5 9.8-.7 22.9-.5 21.8.5 23.4.5 26 .3 1.7-.1 11.3 0 16.7.2 12.6.5 28.2 0 42.5-1.5 6.6-.7 24-1.6 40-2.1 8.3-.3 19.3-.9 24.5-1.4 5.2-.6 12.4-1 15.9-1s6.6-.2 6.9-.5c.4-.4 49.6-.3 133.2.3z"/><path d="M207 270.1c0 .5.5.7 1 .4.6-.3 1-.8 1-1.1 0-.2-.4-.4-1-.4-.5 0-1 .5-1 1.1zM202.5 373.1c-1 1.5.3 2.5 1.6 1.2.7-.7.7-1.3.1-1.7-.6-.3-1.4-.1-1.7.5zM203 380c0 .5.5 1 1.1 1 .5 0 .7-.5.4-1-.3-.6-.8-1-1.1-1-.2 0-.4.4-.4 1zM203.8 391.5c.6 5 2.2 5.4 2.2.6 0-2.7-.4-4.1-1.3-4.1s-1.2 1.1-.9 3.5zM205.9 404.5c-.7 1.5.5 10.1 1.3 8.9.4-.6.4-3.1 0-5.5s-1-4-1.3-3.4zM206.3 416.6c-.3.8-.1 2 .6 2.7.8.8 1.1.4 1.1-1.6 0-3-.7-3.5-1.7-1.1zM207 424c0 .5.5 1 1 1 .6 0 1-.5 1-1 0-.6-.4-1-1-1-.5 0-1 .4-1 1zM341.3 915.7c.9.2 2.5.2 3.5 0 .9-.3.1-.5-1.8-.5-1.9 0-2.7.2-1.7.5zM379.5 81c-1.5.6-.8.9 2.7.9 2.6.1 5-.4 5.3-.9.8-1.2-5.2-1.2-8 0zM392 81c0 .5.5 1 1 1 .6 0 1-.5 1-1 0-.6-.4-1-1-1-.5 0-1 .4-1 1zM473 81c0 .5.5 1 1 1 .6 0 1-.5 1-1 0-.6-.4-1-1-1-.5 0-1 .4-1 1zM625.3 81.7c-.3 1-.8 2.1-1 2.5-.2.5 0 .8.6.8 1.5 0 4.2-3.1 3.6-4.1-1-1.5-2.5-1-3.2.8zM630 82.5c-.7.9-1 1.8-.7 2.1.7.8 4.7-1.4 4.7-2.6 0-1.5-2.6-1.2-4 .5zM636 82c-1.2.8-1.1 1 .6 1 1.1 0 2.5.5 3.1 1.1 1.3 1.3 3.3.4 3.3-1.7 0-1.6-4.7-1.9-7-.4zM646 83.6c0 .8.5 1.2 1 .9.6-.3 1-1 1-1.6 0-.5-.4-.9-1-.9-.5 0-1 .7-1 1.6zM654.8 83.7c.7.3 1.6.2 1.9-.1.4-.3-.2-.6-1.3-.5-1.1 0-1.4.3-.6.6zM663 84.4c0 .2 1.4.6 3 .8 1.7.3 3 .1 3-.4 0-.4-1.3-.8-3-.8-1.6 0-3 .2-3 .4zM357.5 87l-7 .6 9.3.2c5.6.1 9.2-.2 9.2-.8 0-.6-1-.9-2.2-.8-1.3.1-5.4.4-9.3.8zM689.5 86.9c.6.6 4.6 1.3 9 1.6 5 .4 7.4.2 6.5-.3-2.2-1.3-16.7-2.5-15.5-1.3zM337.9 87.5c-.3.2-5 .7-10.5.9-5.4.3-11.2 1-12.9 1.6-2.3.7-1 .8 5 .4 7.9-.7 15.8-1.2 20.3-1.3 2.6-.1 3-2.1.4-2.1-1 0-2.1.2-2.3.5zM345 88c0 .5.4 1 .9 1 .6 0 1.3-.5 1.6-1 .3-.6-.1-1-.9-1-.9 0-1.6.4-1.6 1zM708 88.8c0 .5 1.6 1.2 3.5 1.4 1.9.2 3.5 0 3.5-.4s-.9-.8-1.9-.8c-1.1 0-2.6-.3-3.5-.6-.9-.3-1.6-.2-1.6.4zM669.5 91c-.3.5-.1 1 .4 1 .6 0 1.1-.5 1.1-1 0-.6-.2-1-.4-1-.3 0-.8.4-1.1 1zM695.3 94.7c.9.2 2.3.2 3 0 .6-.3-.1-.5-1.8-.5-1.6 0-2.2.2-1.2.5zM715.8 97.7c.7.3 1.6.2 1.9-.1.4-.3-.2-.6-1.3-.5-1.1 0-1.4.3-.6.6zM723.8 99.2c.5.5 1.6.8 2.3.6.8-.3.3-.7-1-1.1-1.7-.4-2.1-.3-1.3.5zM734.5 101c.3.5 1.1 1 1.6 1 .6 0 .7-.5.4-1-.3-.6-1.1-1-1.6-1-.6 0-.7.4-.4 1zM739.6 101.8c-.3.5.4 1 1.7 1 1.2 0 4.3.4 7 .8 3.2.4 4.7.3 4.7-.5 0-.6-1.2-1.1-2.7-1.1-1.6 0-4.4-.3-6.4-.6-2.1-.4-3.9-.2-4.3.4zM757.8 105.7c.7.3 1.6.2 1.9-.1.4-.3-.2-.6-1.3-.5-1.1 0-1.4.3-.6.6zM620.8 206.5c-4.8 1.6-8.8 4.2-8.8 5.7 0 .6.9.3 2-.7s4.3-2.6 7.1-3.5c2.8-1 4.7-2 4.2-2.3-.4-.3-2.5.1-4.5.8zM776.1 292.6c0 1.1.3 1.4.6.6.3-.7.2-1.6-.1-1.9-.3-.4-.6.2-.5 1.3zM830.1 492.6c0 1.1.3 1.4.6.6.3-.7.2-1.6-.1-1.9-.3-.4-.6.2-.5 1.3zM832.2 528c0 1.4.2 1.9.5 1.2.2-.6.2-1.8 0-2.5-.3-.6-.5-.1-.5 1.3zM810.7 532.7c-1.1 1-.8 2 1 3.9 1.6 1.6 1.6 1.6-.7 1-1.4-.3-1.9-.3-1.2 0 1.7.8 1.6 4.8-.2 4.1-1-.4-1.5.4-1.8 2.4-.3 1.6-.3 3.1-.1 3.3.9.9 4.2-.7 4.7-2.3.2-.9.2.2 0 2.4-.3 2.2-1 5.3-1.6 6.8-.9 2.3-.8 3.1.5 4.4 1.3 1.3 1.9 1.4 3.1.3 1.2-.9 1.6-.9 1.6-.1 0 .7.5.9 1 .6 1.6-1 1.1-2.2-1.2-2.8-2.1-.6-2.1-.7-.3-2.7 1-1.1 1.5-2.3 1.2-2.7-.4-.3-.7-.1-.7.5 0 .7-.4 1.2-1 1.2-.5 0-1-.9-1-2s.6-2 1.3-2c1.9 0 2.2-9.9.3-10.6-.8-.3-1.6-1.8-2-3.5-.5-2.8-1.6-3.6-2.9-2.2zM815 562.5c0 .8-.7 1.5-1.5 1.5-1.7 0-2 1.6-.4 2.5 1.1.8 3.8-2.2 3.9-4.3 0-.6-.4-1.2-1-1.2-.5 0-1 .7-1 1.5zM811.6 586.9c-.4.7-.5 1.5-.2 1.8.9.9 1.9-.4 1.4-1.8-.4-1.1-.6-1.1-1.2 0zM812 613.9c0 .6.4 1.3 1 1.6.6.3.7-.1.4-.9-.7-1.8-1.4-2.1-1.4-.7zM813 627c0 .5.5 1 1 1 .6 0 1-.5 1-1 0-.6-.4-1-1-1-.5 0-1 .4-1 1zM814 656.4c0 2.2.3 2.7 1.1 1.9.8-.8.8-1.6 0-3-.9-1.6-1-1.4-1.1 1.1zM815.1 663.6c0 1.1.3 1.4.6.6.3-.7.2-1.6-.1-1.9-.3-.4-.6.2-.5 1.3zM828.5 670c.3.5.8 1 1.1 1 .2 0 .4-.5.4-1 0-.6-.5-1-1.1-1-.5 0-.7.4-.4 1zM815.1 676.2c0 .7.4 2.2.9 3.3.7 1.7.9 1.5.9-1.3.1-1.7-.3-3.2-.9-3.2-.5 0-1 .6-.9 1.2zM815.5 702.1c-1.1 1.7 0 2 2.1.4 1.7-1.3 1.7-1.4.2-1.5-.9 0-2 .5-2.3 1.1zM815.6 708.9c-1.9 2.1-2.2 3.8-.3 2.2 1-.8 1.7-.7 2.5.1.9.9 1.2.7 1.2-.9 0-3-1.4-3.6-3.4-1.4zM816 729.5c0 .8.4 1.5 1 1.5.5 0 .7-.7.4-1.5-.4-.8-.8-1.5-1-1.5-.2 0-.4.7-.4 1.5zM814.5 745c-.4.7-.1 1.6.6 2.1 2.3 1.4 3.2 1 1.8-.9-.7-.9-1.4-1.8-1.5-2-.1-.2-.5.2-.9.8zM404.2 783.6c-1.7 3.6-2.6 6.4-2.1 6.2 1.1-.4 6.3-11.7 5.7-12.4-.2-.2-1.8 2.6-3.6 6.2zM397.3 799.7c-5.9 14.7-8.1 20.8-8.8 24.3-.4 1.9-1.4 4.7-2.3 6.2-1.1 1.9-1.3 3.1-.6 3.8.6.6.8 3.3.4 6.5-.5 4.5-.3 5.7 1.2 7 1 .8 2.6 1.5 3.5 1.5 1.4 0 1.4-.3-.4-2.3-1.1-1.2-2.3-3.3-2.6-4.6-.8-3.5.3-8.3 1.8-7.7 1.9.7 2.7-.5 1.4-2.1-1.8-2.1-.4-8.7 5-23.3 2.7-7.4 5.2-14.3 5.6-15.3.4-.9.3-1.7-.2-1.7s-2.3 3.5-4 7.7zM831.1 842.6c0 1.1.3 1.4.6.6.3-.7.2-1.6-.1-1.9-.3-.4-.6.2-.5 1.3zM179.3 883.7c-1.5.5-1.8 3.3-.4 3.3.5 0 1.1-.9 1.4-2 .3-1.1.4-2 .4-1.9-.1 0-.8.3-1.4.6zM585.8 889.7c.7.3 1.6.2 1.9-.1.4-.3-.2-.6-1.3-.5-1.1 0-1.4.3-.6.6zM590.3 889.7c.9.2 2.3.2 3 0 .6-.3-.1-.5-1.8-.5-1.6 0-2.2.2-1.2.5zM781.5 895.8c1.8 3.7 8.5 11.5 9.3 10.8.4-.5-2.2-4.1-8.1-10.9l-2.8-3.2 1.6 3.3zM286 895c0 .5 1.5 1 3.3.9 2.7 0 2.9-.2 1.2-.9-2.8-1.2-4.5-1.2-4.5 0zM297.8 895.7c.7.3 1.6.2 1.9-.1.4-.3-.2-.6-1.3-.5-1.1 0-1.4.3-.6.6zM771.9 915.6c-1.3 3.7-.3 6.7 2.2 5.9 2.7-.9 2.4 0-1.6 5.2-3.2 4.2-3.8 7.1-1.9 9.1.1.2 3-1.9 6.4-4.7 3.3-2.8 6.4-5.1 6.8-5.1.4 0 1.3-.9 2-2.1 1.1-1.7 1.1-2.4-.1-3.7-.8-1-1.7-2.5-2-3.4-.4-1-1.2-1.5-2-1.2-.8.3-2.1-.2-3-1-2.4-2.5-5.6-2-6.8 1zM815.1 917.6c0 1.1.3 1.4.6.6.3-.7.2-1.6-.1-1.9-.3-.4-.6.2-.5 1.3z"/></svg>